<svg width="32" height="32" viewBox="0 0 32 32" fill="none" xmlns="http://www.w3.org/2000/svg">
  <rect width="32" height="32" rx="8" fill="white"/>
  <path d="M23.7 16.2c0-.6-.1-1.2-.2-1.7H16v3.3h4.3c-.2 1-.8 1.9-1.6 2.5v2h2.6c1.5-1.4 2.4-3.5 2.4-6.1z" fill="#4285F4"/>
  <path d="M16 24c2.2 0 4-.7 5.3-1.9l-2.6-2c-.7.5-1.6.8-2.7.8-2.1 0-3.8-1.4-4.4-3.3H8.9v2.1C10.2 22.2 12.9 24 16 24z" fill="#34A853"/>
  <path d="M11.6 17.6c-.2-.5-.3-1-.3-1.6s.1-1.1.3-1.6v-2.1H8.9C8.3 13.2 8 14.6 8 16s.3 2.8.9 3.7l2.7-2.1z" fill="#FBBC05"/>
  <path d="M16 11.1c1.2 0 2.2.4 3 1.2l2.3-2.3C19.9 8.8 18.1 8 16 8c-3.1 0-5.8 1.8-7.1 4.3l2.7 2.1c.6-1.9 2.3-3.3 4.4-3.3z" fill="#EA4335"/>
</svg>
