<svg width="32" height="32" viewBox="0 0 32 32" fill="none" xmlns="http://www.w3.org/2000/svg">
  <rect width="32" height="32" rx="8" fill="#0668E1"/>
  <path d="M9.5 20.5c-1.5 0-2.5-1.8-2.5-4.5 0-2.7 1-4.5 2.5-4.5.8 0 1.5.5 2.2 1.4l2.3 3.1 2.3-3.1c.7-.9 1.4-1.4 2.2-1.4 1.5 0 2.5 1.8 2.5 4.5 0 2.7-1 4.5-2.5 4.5-.8 0-1.5-.5-2.2-1.4L14 16l-2.3 3.1c-.7.9-1.4 1.4-2.2 1.4z" fill="none" stroke="white" stroke-width="1.5"/>
  <path d="M20 16c0 2.7 1 4.5 2.5 4.5s2.5-1.8 2.5-4.5-1-4.5-2.5-4.5c-.8 0-1.5.5-2.2 1.4" fill="none" stroke="white" stroke-width="1.5"/>
</svg>
