<svg width="32" height="32" viewBox="0 0 32 32" fill="none" xmlns="http://www.w3.org/2000/svg">
  <rect width="32" height="32" rx="8" fill="#10A37F"/>
  <path d="M16 7c-2.5 0-4.5 1.3-5.5 3.2-.8-.3-1.6-.4-2.5-.2-2 .5-3.5 2.3-3.5 4.5 0 1.5.7 2.8 1.8 3.7-.3.8-.3 1.7 0 2.6.7 2 2.7 3.2 4.7 3 1 1.5 2.8 2.5 4.8 2.5 2.5 0 4.5-1.3 5.5-3.2.8.3 1.6.4 2.5.2 2-.5 3.5-2.3 3.5-4.5 0-1.5-.7-2.8-1.8-3.7.3-.8.3-1.7 0-2.6-.7-2-2.7-3.2-4.7-3-1-1.5-2.8-2.5-4.8-2.5z" stroke="white" stroke-width="1.5" fill="none"/>
  <circle cx="16" cy="16" r="3" fill="white"/>
</svg>
